<svg width="106" height="21" viewBox="0 0 106 21" fill="none" xmlns="http://www.w3.org/2000/svg">
<g clip-path="url(#clip0_1358_1679)">
<path d="M61.5725 4.75L56.1018 16.5326L50.6179 4.75H48.014L54.5368 18.8021L54.6289 19H57.5615L57.6536 18.8021L64.1895 4.75H61.5725Z" fill="white"/>
<path d="M47.9088 10.6875C47.3433 7.32292 44.4238 4.75 40.8994 4.75C36.9805 4.75 33.798 7.94306 33.798 11.875C33.798 15.8069 36.9805 19 40.8994 19C43.0693 19 45.0156 18.0236 46.3044 16.4931L44.0951 15.3847C43.2534 16.1632 42.1224 16.6382 40.8994 16.6382C38.6901 16.6382 36.8358 15.1208 36.3098 13.0757H45.4759H47.2907H47.8956C47.9351 12.8778 47.9482 12.6799 47.9745 12.4688C47.9745 12.4424 47.9745 12.4292 47.9745 12.4028V12.3896C47.9877 12.2181 47.9877 12.0597 47.9877 11.8882C48.014 11.466 47.9745 11.0701 47.9088 10.6875ZM36.3229 10.6875C36.849 8.64236 38.7032 7.125 40.9126 7.125C43.1219 7.125 44.9762 8.64236 45.5022 10.6875H36.3229Z" fill="white"/>
<path d="M29.0768 0V6.57083C27.8143 5.43611 26.1573 4.75 24.3425 4.75C20.4236 4.75 17.2411 7.94306 17.2411 11.875C17.2411 15.8069 20.4236 19 24.3425 19C26.1573 19 27.8143 18.3139 29.0768 17.1792V19H31.444V0H29.0768ZM24.3425 16.625C21.7255 16.625 19.6082 14.5007 19.6082 11.875C19.6082 9.24931 21.7255 7.125 24.3425 7.125C26.9595 7.125 29.0768 9.24931 29.0768 11.875C29.0768 14.5007 26.9464 16.625 24.3425 16.625Z" fill="white"/>
<path d="M16.1496 7.125V4.75H14.0849L15.3079 0H12.8619L11.6388 4.75H6.98346L8.20649 0H5.76044L4.53741 4.75H1.9467V7.125H3.91933L2.6963 11.875H0.105591V14.25H2.09136L0.868338 19H3.31439L4.53741 14.25H9.1928L7.96977 19H10.4158L11.6388 14.25H14.3085V11.875H12.2438L13.4668 7.125H16.1496ZM9.79774 11.875H5.14235L6.36538 7.125H11.0208L9.79774 11.875Z" fill="#5D7CD2"/>
</g>
<path d="M73.12 3.632C73.52 3.632 73.8827 3.72533 74.208 3.912C74.5387 4.09333 74.7973 4.352 74.984 4.688C75.1707 5.01867 75.264 5.40533 75.264 5.848C75.264 6.29067 75.1707 6.68 74.984 7.016C74.7973 7.34667 74.5387 7.60533 74.208 7.792C73.8827 7.97333 73.52 8.064 73.12 8.064C72.528 8.064 72.0773 7.87733 71.768 7.504V8H70.576V2.064H71.824V4.152C72.1387 3.80533 72.5707 3.632 73.12 3.632ZM72.904 7.04C73.224 7.04 73.4853 6.93333 73.688 6.72C73.896 6.50133 74 6.21067 74 5.848C74 5.48533 73.896 5.19733 73.688 4.984C73.4853 4.76533 73.224 4.656 72.904 4.656C72.584 4.656 72.32 4.76533 72.112 4.984C71.9093 5.19733 71.808 5.48533 71.808 5.848C71.808 6.21067 71.9093 6.50133 72.112 6.72C72.32 6.93333 72.584 7.04 72.904 7.04ZM80.4354 3.696V8H79.2514V7.488C79.0861 7.67467 78.8888 7.81867 78.6594 7.92C78.4301 8.016 78.1821 8.064 77.9154 8.064C77.3501 8.064 76.9021 7.90133 76.5714 7.576C76.2408 7.25067 76.0754 6.768 76.0754 6.128V3.696H77.3234V5.944C77.3234 6.63733 77.6141 6.984 78.1954 6.984C78.4941 6.984 78.7341 6.888 78.9154 6.696C79.0968 6.49867 79.1874 6.208 79.1874 5.824V3.696H80.4354ZM81.5916 3.696H82.8396V8H81.5916V3.696ZM82.2156 3.096C81.9863 3.096 81.7996 3.02933 81.6556 2.896C81.5116 2.76267 81.4396 2.59733 81.4396 2.4C81.4396 2.20267 81.5116 2.03733 81.6556 1.904C81.7996 1.77067 81.9863 1.704 82.2156 1.704C82.445 1.704 82.6316 1.768 82.7756 1.896C82.9196 2.024 82.9916 2.184 82.9916 2.376C82.9916 2.584 82.9196 2.75733 82.7756 2.896C82.6316 3.02933 82.445 3.096 82.2156 3.096ZM83.9979 2.064H85.2459V8H83.9979V2.064ZM89.4926 7.792C89.37 7.88267 89.218 7.952 89.0366 8C88.8606 8.04267 88.674 8.064 88.4766 8.064C87.9646 8.064 87.5673 7.93333 87.2846 7.672C87.0073 7.41067 86.8686 7.02667 86.8686 6.52V4.752H86.2046V3.792H86.8686V2.744H88.1166V3.792H89.1886V4.752H88.1166V6.504C88.1166 6.68533 88.162 6.82667 88.2526 6.928C88.3486 7.024 88.482 7.072 88.6526 7.072C88.85 7.072 89.018 7.01867 89.1566 6.912L89.4926 7.792ZM94.5068 8.064C94.0535 8.064 93.6455 7.97067 93.2828 7.784C92.9255 7.592 92.6455 7.328 92.4428 6.992C92.2401 6.656 92.1388 6.27467 92.1388 5.848C92.1388 5.42133 92.2401 5.04 92.4428 4.704C92.6455 4.368 92.9255 4.10667 93.2828 3.92C93.6455 3.728 94.0535 3.632 94.5068 3.632C94.9601 3.632 95.3655 3.728 95.7228 3.92C96.0801 4.10667 96.3601 4.368 96.5628 4.704C96.7655 5.04 96.8668 5.42133 96.8668 5.848C96.8668 6.27467 96.7655 6.656 96.5628 6.992C96.3601 7.328 96.0801 7.592 95.7228 7.784C95.3655 7.97067 94.9601 8.064 94.5068 8.064ZM94.5068 7.04C94.8268 7.04 95.0881 6.93333 95.2908 6.72C95.4988 6.50133 95.6028 6.21067 95.6028 5.848C95.6028 5.48533 95.4988 5.19733 95.2908 4.984C95.0881 4.76533 94.8268 4.656 94.5068 4.656C94.1868 4.656 93.9228 4.76533 93.7148 4.984C93.5068 5.19733 93.4028 5.48533 93.4028 5.848C93.4028 6.21067 93.5068 6.50133 93.7148 6.72C93.9228 6.93333 94.1868 7.04 94.5068 7.04ZM100.317 3.632C100.85 3.632 101.28 3.792 101.605 4.112C101.936 4.432 102.101 4.90667 102.101 5.536V8H100.853V5.728C100.853 5.38667 100.778 5.13333 100.629 4.968C100.48 4.79733 100.264 4.712 99.981 4.712C99.6663 4.712 99.4157 4.81067 99.229 5.008C99.0423 5.2 98.949 5.488 98.949 5.872V8H97.701V3.696H98.893V4.2C99.0583 4.01867 99.2637 3.88 99.509 3.784C99.7543 3.68267 100.024 3.632 100.317 3.632Z" fill="white"/>
<path d="M73.18 19.12C72.4667 19.12 71.82 18.9667 71.24 18.66C70.6667 18.3467 70.2133 17.9167 69.88 17.37C69.5533 16.8167 69.39 16.1933 69.39 15.5C69.39 14.8067 69.5533 14.1867 69.88 13.64C70.2133 13.0867 70.6667 12.6567 71.24 12.35C71.82 12.0367 72.47 11.88 73.19 11.88C73.7967 11.88 74.3433 11.9867 74.83 12.2C75.3233 12.4133 75.7367 12.72 76.07 13.12L75.03 14.08C74.5567 13.5333 73.97 13.26 73.27 13.26C72.8367 13.26 72.45 13.3567 72.11 13.55C71.77 13.7367 71.5033 14 71.31 14.34C71.1233 14.68 71.03 15.0667 71.03 15.5C71.03 15.9333 71.1233 16.32 71.31 16.66C71.5033 17 71.77 17.2667 72.11 17.46C72.45 17.6467 72.8367 17.74 73.27 17.74C73.97 17.74 74.5567 17.4633 75.03 16.91L76.07 17.87C75.7367 18.2767 75.3233 18.5867 74.83 18.8C74.3367 19.0133 73.7867 19.12 73.18 19.12ZM78.544 14.33C78.7307 14.07 78.9807 13.8733 79.294 13.74C79.614 13.6067 79.9807 13.54 80.394 13.54V14.98C80.2207 14.9667 80.104 14.96 80.044 14.96C79.5973 14.96 79.2473 15.0867 78.994 15.34C78.7407 15.5867 78.614 15.96 78.614 16.46V19H77.054V13.62H78.544V14.33ZM83.8327 19.08C83.2661 19.08 82.7561 18.9633 82.3027 18.73C81.8561 18.49 81.5061 18.16 81.2527 17.74C80.9994 17.32 80.8727 16.8433 80.8727 16.31C80.8727 15.7767 80.9994 15.3 81.2527 14.88C81.5061 14.46 81.8561 14.1333 82.3027 13.9C82.7561 13.66 83.2661 13.54 83.8327 13.54C84.3994 13.54 84.9061 13.66 85.3527 13.9C85.7994 14.1333 86.1494 14.46 86.4027 14.88C86.6561 15.3 86.7827 15.7767 86.7827 16.31C86.7827 16.8433 86.6561 17.32 86.4027 17.74C86.1494 18.16 85.7994 18.49 85.3527 18.73C84.9061 18.9633 84.3994 19.08 83.8327 19.08ZM83.8327 17.8C84.2327 17.8 84.5594 17.6667 84.8127 17.4C85.0727 17.1267 85.2027 16.7633 85.2027 16.31C85.2027 15.8567 85.0727 15.4967 84.8127 15.23C84.5594 14.9567 84.2327 14.82 83.8327 14.82C83.4327 14.82 83.1027 14.9567 82.8427 15.23C82.5827 15.4967 82.4527 15.8567 82.4527 16.31C82.4527 16.7633 82.5827 17.1267 82.8427 17.4C83.1027 17.6667 83.4327 17.8 83.8327 17.8ZM91.0955 13.54C91.7621 13.54 92.2988 13.74 92.7055 14.14C93.1188 14.54 93.3255 15.1333 93.3255 15.92V19H91.7655V16.16C91.7655 15.7333 91.6721 15.4167 91.4855 15.21C91.2988 14.9967 91.0288 14.89 90.6755 14.89C90.2821 14.89 89.9688 15.0133 89.7355 15.26C89.5021 15.5 89.3855 15.86 89.3855 16.34V19H87.8255V13.62H89.3155V14.25C89.5221 14.0233 89.7788 13.85 90.0855 13.73C90.3921 13.6033 90.7288 13.54 91.0955 13.54ZM97.3581 19.08C96.7915 19.08 96.2815 18.9633 95.8281 18.73C95.3815 18.49 95.0315 18.16 94.7781 17.74C94.5248 17.32 94.3981 16.8433 94.3981 16.31C94.3981 15.7767 94.5248 15.3 94.7781 14.88C95.0315 14.46 95.3815 14.1333 95.8281 13.9C96.2815 13.66 96.7915 13.54 97.3581 13.54C97.9248 13.54 98.4315 13.66 98.8781 13.9C99.3248 14.1333 99.6748 14.46 99.9281 14.88C100.181 15.3 100.308 15.7767 100.308 16.31C100.308 16.8433 100.181 17.32 99.9281 17.74C99.6748 18.16 99.3248 18.49 98.8781 18.73C98.4315 18.9633 97.9248 19.08 97.3581 19.08ZM97.3581 17.8C97.7581 17.8 98.0848 17.6667 98.3381 17.4C98.5981 17.1267 98.7281 16.7633 98.7281 16.31C98.7281 15.8567 98.5981 15.4967 98.3381 15.23C98.0848 14.9567 97.7581 14.82 97.3581 14.82C96.9581 14.82 96.6281 14.9567 96.3681 15.23C96.1081 15.4967 95.9781 15.8567 95.9781 16.31C95.9781 16.7633 96.1081 17.1267 96.3681 17.4C96.6281 17.6667 96.9581 17.8 97.3581 17.8ZM103.161 19.08C102.714 19.08 102.278 19.0267 101.851 18.92C101.424 18.8067 101.084 18.6667 100.831 18.5L101.351 17.38C101.591 17.5333 101.881 17.66 102.221 17.76C102.561 17.8533 102.894 17.9 103.221 17.9C103.881 17.9 104.211 17.7367 104.211 17.41C104.211 17.2567 104.121 17.1467 103.941 17.08C103.761 17.0133 103.484 16.9567 103.111 16.91C102.671 16.8433 102.308 16.7667 102.021 16.68C101.734 16.5933 101.484 16.44 101.271 16.22C101.064 16 100.961 15.6867 100.961 15.28C100.961 14.94 101.058 14.64 101.251 14.38C101.451 14.1133 101.738 13.9067 102.111 13.76C102.491 13.6133 102.938 13.54 103.451 13.54C103.831 13.54 104.208 13.5833 104.581 13.67C104.961 13.75 105.274 13.8633 105.521 14.01L105.001 15.12C104.528 14.8533 104.011 14.72 103.451 14.72C103.118 14.72 102.868 14.7667 102.701 14.86C102.534 14.9533 102.451 15.0733 102.451 15.22C102.451 15.3867 102.541 15.5033 102.721 15.57C102.901 15.6367 103.188 15.7 103.581 15.76C104.021 15.8333 104.381 15.9133 104.661 16C104.941 16.08 105.184 16.23 105.391 16.45C105.598 16.67 105.701 16.9767 105.701 17.37C105.701 17.7033 105.601 18 105.401 18.26C105.201 18.52 104.908 18.7233 104.521 18.87C104.141 19.01 103.688 19.08 103.161 19.08Z" fill="#5D7CD2"/>
<defs>
<clipPath id="clip0_1358_1679">
<rect width="64.0444" height="19" fill="white" transform="translate(0.105591)"/>
</clipPath>
</defs>
</svg>
