<svg width="1441" height="591" viewBox="0 0 1441 591" fill="none" xmlns="http://www.w3.org/2000/svg">
<path opacity="0.45" d="M1496 588.539L1354.32 390.633C1325.6 349.942 1268.16 340.694 1226.99 369.363L1206.89 383.235C1157.11 417.452 1088.18 396.182 1068.07 340.694L999.147 146.488C971.384 67.8807 855.547 67.8807 827.785 146.488L794.278 240.817C767.473 316.65 659.295 321.274 625.789 248.215L597.069 185.329C568.349 122.443 479.317 115.045 439.109 171.457C396.987 230.644 302.212 218.622 278.278 150.187L245.729 59.5576C216.052 -23.6737 91.5994 -17.2001 71.4955 68.8055L-52 590.388C-50.0853 588.539 1491.21 583.915 1496 588.539Z" fill="url(#paint0_linear)"/>
<defs>
<linearGradient id="paint0_linear" x1="722" y1="0.580959" x2="755.55" y2="500.842" gradientUnits="userSpaceOnUse">
<stop stop-color="#00FF9A"/>
<stop offset="0.477083" stop-color="#37DFFF" stop-opacity="0.6"/>
<stop offset="1" stop-color="#6F94F7" stop-opacity="0"/>
</linearGradient>
</defs>
</svg>
