<svg width="473" height="141" viewBox="0 0 473 141" fill="none" xmlns="http://www.w3.org/2000/svg">
<g clip-path="url(#clip0)">
<path d="M453.962 35.25L413.558 122.69L373.057 35.25H353.826L402 139.531L402.68 141H424.339L425.019 139.531L473.29 35.25H453.962Z" fill="white"/>
<path d="M353.05 79.3125C348.873 54.3438 327.312 35.25 301.282 35.25C272.339 35.25 248.834 58.9458 248.834 88.125C248.834 117.304 272.339 141 301.282 141C317.308 141 331.682 133.754 341.201 122.396L324.884 114.171C318.668 119.948 310.315 123.473 301.282 123.473C284.965 123.473 271.27 112.213 267.385 97.0354H335.082H348.485H352.953C353.244 95.5667 353.341 94.0979 353.535 92.5313C353.535 92.3354 353.535 92.2375 353.535 92.0417V91.9438C353.633 90.6708 353.633 89.4958 353.633 88.2229C353.827 85.0896 353.535 82.1521 353.05 79.3125ZM267.483 79.3125C271.368 64.1354 285.062 52.875 301.379 52.875C317.696 52.875 331.391 64.1354 335.276 79.3125H267.483Z" fill="white"/>
<path d="M213.966 0V48.7625C204.642 40.3417 192.405 35.25 179.001 35.25C150.058 35.25 126.554 58.9458 126.554 88.125C126.554 117.304 150.058 141 179.001 141C192.405 141 204.642 135.908 213.966 127.487V141H231.449V0H213.966ZM179.001 123.375C159.673 123.375 144.036 107.61 144.036 88.125C144.036 68.6396 159.673 52.875 179.001 52.875C198.329 52.875 213.966 68.6396 213.966 88.125C213.966 107.61 198.232 123.375 179.001 123.375Z" fill="white"/>
<path d="M118.493 52.875V35.25H103.244L112.277 0H94.2115L85.1788 35.25H50.7965L59.8292 0H41.7639L32.7312 35.25H13.5975V52.875H28.1663L19.1337 88.125H0V105.75H14.6659L5.63327 141H23.6986L32.7312 105.75H67.1136L58.0809 141H76.1462L85.1788 105.75H104.895V88.125H89.6466L98.6793 52.875H118.493ZM71.5813 88.125H37.199L46.2316 52.875H80.614L71.5813 88.125Z" fill="#5D7CD2"/>
</g>
<defs>
<clipPath id="clip0">
<rect width="473" height="141" fill="white"/>
</clipPath>
</defs>
</svg>
